<svg width="1080" height="1080" viewBox="0 0 1080 1080" fill="none" xmlns="http://www.w3.org/2000/svg">
<path d="M185 634.778C185.001 547.847 185.001 461.583 185.001 374.916C186.925 374.692 188.392 374.373 189.859 374.373C242.796 374.358 295.733 374.226 348.669 374.443C377.522 374.562 404.499 381.859 429.052 397.338C446.27 408.193 460.011 422.541 471.476 440.115C502.246 397.511 544.13 374.867 595.885 370.731C637.677 367.391 677.007 375.215 711.757 400.003C787.313 453.898 789.575 550.912 767.088 606.107C765.48 604.783 763.93 603.684 762.587 602.374C743.64 583.894 724.653 565.455 705.9 546.781C703.974 544.864 702.612 541.549 702.472 538.807C701.542 520.56 697.857 503.068 688.698 487.11C670.143 454.781 641.231 441.736 604.979 443.22C597.709 443.518 590.383 444.865 583.308 446.629C578.938 447.719 576.414 446.603 573.622 443.529C570.229 439.794 566.307 436.539 562.21 432.698C552.331 445.962 542.401 459.264 532.506 472.592C529.193 477.055 525.943 481.565 522.715 486.09C519.785 490.198 517.455 494.774 510.836 493.635C509.31 493.372 506.876 496.078 505.451 497.884C492.776 513.941 480.236 530.104 467.651 546.231C466.846 547.262 465.991 548.255 464.834 549.661C457.906 545.96 450.822 542.759 444.396 538.552C439.564 535.389 436.623 536.27 433.317 540.412C429.057 545.748 424.409 550.775 419.928 555.936C419.005 555.396 418.083 554.857 417.161 554.317C417.161 542.942 418.415 531.386 416.81 520.241C415.188 508.976 412.027 497.523 407.267 487.2C395.598 461.893 374.717 448.667 347.069 447.812C319.524 446.961 291.932 447.626 263.816 447.626C263.816 508.998 263.816 570.208 263.816 632.104C287.762 632.104 311.604 632.104 336.908 632.104C333.423 636.407 330.902 639.659 328.236 642.788C311.361 662.593 294.518 682.427 277.454 702.069C275.813 703.958 272.744 705.637 270.321 705.661C242.965 705.922 215.606 705.845 188.248 705.838C187.398 705.838 186.549 705.62 185 705.408C185 682.019 185 658.732 185 634.778Z" fill="#1F7A63"/>
<path d="M750.537 703.129C739.889 698.198 729.748 693.426 717.883 687.842C738.756 672.396 754.266 655.298 765.245 635.666C773.698 636.801 781.302 638.539 788.938 638.692C802.732 638.969 811.912 632.014 814.86 618.437C816.819 609.408 817.515 599.951 817.544 590.682C817.757 521.291 817.664 451.9 817.666 382.508C817.666 380.093 817.666 377.678 817.666 374.734C843.266 374.734 868.496 374.734 894.817 374.734C894.817 376.645 894.816 378.743 894.817 380.842C894.835 452.68 894.901 524.518 894.841 596.355C894.825 615.127 892.97 633.722 885.895 651.311C872.202 685.36 845.751 702.851 810.381 707.956C790.337 710.848 770.451 709.564 750.537 703.129Z" fill="#1F7A63"/>
<path d="M542.607 477.276C547.62 470.293 552.632 463.309 558.357 455.952C559.362 455.219 559.653 454.859 559.944 454.498C560.596 453.659 561.249 452.819 562.599 451.975C563.296 451.971 563.873 451.934 563.873 451.934C566.899 453.911 570.372 455.442 572.872 457.944C582.139 467.218 590.96 476.939 600.276 486.162C601.85 487.721 605.104 487.475 607.459 488.38C609.707 489.245 612.352 490.022 613.867 491.701C626.08 505.231 638.071 518.962 650.122 532.639C652.61 535.463 655.065 538.316 657.359 540.952C658.182 541.014 658.725 541.235 659.024 541.053C671.598 533.412 681.042 535.681 691.488 546.891C712.685 569.638 735.582 590.808 757.967 612.432C761.619 615.959 762.072 618.541 759.553 623.136C734.17 669.425 695.487 697.038 643.69 706.513C641.748 706.868 639.761 706.972 637.345 707.243C634.633 695.95 625.884 691.048 616.072 688.278C597.488 683.031 578.671 678.613 559.985 673.718C555.272 672.483 550.572 671.024 546.1 669.118C544.144 668.285 542.776 666.07 541.141 664.483C542.73 663.082 544.096 661.025 545.947 660.395C553.5 657.824 561.183 655.624 568.854 653.412C578.448 650.647 588.082 648.015 597.689 645.295C598.752 644.994 599.783 644.546 600.786 644.075C605.595 641.817 611.564 640.004 611.444 633.589C611.324 627.152 605.318 625.13 600.341 623.561C588.704 619.893 576.868 616.858 565.125 613.522C562.623 612.811 560.175 611.908 557.703 611.093C557.615 610.467 557.526 609.842 557.438 609.216C560.947 607.986 564.422 606.646 567.972 605.549C574.537 603.52 581.202 601.799 587.695 599.568C589.278 599.023 590.353 596.998 591.661 595.654C590.21 594.447 588.944 592.719 587.275 592.125C580.197 589.608 572.999 587.427 564.197 584.593C576.544 580.385 587.391 576.688 599.633 572.516C594.748 568.079 590.527 564.322 586.394 560.472C581.189 555.623 576.291 550.412 570.818 545.893C566.115 542.01 565.541 538.196 569.355 533.191C574.801 536.15 580.325 539.152 585.849 542.154C586.253 541.813 586.656 541.472 587.06 541.131C581.1 531.559 575.141 521.987 568.98 512.091C566.001 513.541 562.321 515.333 556.719 518.061C560.424 508.3 565.083 500.493 566.039 492.256C566.998 483.995 564.263 475.305 563.146 466.804C562.534 466.495 561.921 466.186 561.308 465.878C557.991 470.843 554.674 475.808 550.499 481.007C547.297 479.92 544.952 478.598 542.607 477.276ZM687.333 578.803C684.344 576.15 681.03 573.767 678.497 570.733C677.131 569.098 675.865 565.64 676.678 564.219C680.745 557.111 677.429 551.24 674.871 544.664C670.057 546.447 665.636 547.877 661.395 549.721C658.096 551.155 655.826 551.002 652.477 548.791C644.476 543.511 635.777 539.287 627.36 534.636C626.791 535.244 626.222 535.852 625.653 536.459C632.747 544.972 639.841 553.486 647.103 562.201C644.656 565.322 641.983 568.732 638.106 573.677C662.074 574.339 672.413 593.357 688.43 606.248C686.126 598.647 684.185 592.242 681.968 584.929C687.62 586.036 692.1 586.913 698.195 588.107C694.052 584.561 691.049 581.992 687.333 578.803Z" fill="#1F7A63"/>
<path d="M350.467 648.163C352.709 647.974 355.39 648.517 357.126 647.48C372.891 638.05 389.831 630.103 400.727 613.026C402.839 616.829 404.375 619.594 406.146 622.782C412.985 617.453 419.513 612.367 427.301 606.3C425.672 614.38 424.38 620.784 423.089 627.188C423.577 627.563 424.065 627.939 424.552 628.314C429.866 624.13 435.687 620.444 440.39 615.659C450.355 605.522 461.162 597.735 476.131 597.546C477.788 597.525 479.936 595.61 480.951 594.001C483.194 590.448 485.382 586.701 486.67 582.734C492.381 565.144 507.033 556.005 521.617 544.954C520.307 550.918 519.24 555.78 517.873 562.006C527.35 554.234 535.809 547.298 544.268 540.361C544.635 540.567 545.003 540.772 545.371 540.977C541.051 551.617 536.731 562.257 532.411 572.897C532.624 573.383 532.837 573.868 533.049 574.354C543.78 567.75 554.51 561.145 566.826 553.565C563.31 565.379 560.269 575.594 556.879 586.984C564.492 589.459 572.09 591.929 579.688 594.399C579.714 594.86 579.739 595.32 579.764 595.781C573.064 597.539 566.333 599.188 559.675 601.094C555.42 602.312 551.095 603.534 547.121 605.427C541.509 608.101 541.202 612.465 546.802 615.055C554.004 618.387 561.748 620.561 569.295 623.127C577.131 625.792 585.01 628.329 592.87 630.921C592.859 631.808 592.847 632.694 592.835 633.581C589.509 634.896 586.272 636.546 582.84 637.47C567.615 641.569 552.257 645.193 537.113 649.561C531.217 651.261 525.335 653.819 520.191 657.14C511.75 662.59 511.58 671.412 520.271 676.402C527.459 680.529 535.736 682.929 543.737 685.44C557.277 689.69 571.089 693.096 584.544 697.585C588.345 698.852 591.3 702.652 593.718 706.584C542.688 703.327 502.084 681.48 471.772 639.857C469.305 643.238 467.112 646.481 464.684 649.536C436.319 685.226 398.385 702.39 353.757 705.151C332.72 706.453 311.536 705.374 289.141 705.374C307.664 683.506 325.74 662.164 344.303 641.131C344.195 645.78 347.336 646.968 350.467 648.163ZM349.736 651.705C349.752 651.968 349.768 652.231 349.784 652.494C349.862 652.318 349.94 652.142 349.736 651.705Z" fill="#1F7A63"/>
<path d="M350.875 647.986C347.333 646.967 344.192 645.779 344.694 640.859C352.782 630.35 360.921 620.385 369.201 610.538C370.068 609.508 372.093 608.316 373.029 608.668C377.919 610.507 380.438 607.333 383.284 604.512C400.481 587.463 417.731 570.467 434.871 553.361C436.578 551.658 437.671 549.338 438.821 547.642C449.458 553.244 458.445 557.977 467.95 562.983C472.787 556.747 477.401 550.843 481.966 544.902C491.437 532.573 500.812 520.169 510.417 507.946C511.758 506.24 514.275 504.198 516.074 504.351C521.454 504.807 524.072 501.819 526.753 498.052C531.645 491.178 536.788 484.483 542.216 477.494C544.951 478.597 547.295 479.919 550.108 481.257C543.616 491.03 536.763 500.867 529.596 510.47C528.327 512.17 525.661 514.009 523.794 513.859C518.256 513.415 515.566 516.34 512.572 520.328C495.215 543.445 477.59 566.36 460.032 589.325C458.973 590.71 457.712 591.941 457.064 592.664C453.38 590.757 449.911 587.436 446.868 587.788C443.381 588.192 440.272 591.856 437.336 593.872C438.95 583.699 440.551 573.607 442.153 563.514C441.319 563.158 440.485 562.802 439.65 562.446C438.19 563.818 436.695 565.155 435.275 566.569C419.516 582.266 403.818 598.025 387.979 613.641C384.683 616.891 381.926 621.606 375.694 619.389C374.76 619.057 372.55 621.407 371.356 622.865C364.594 631.121 357.962 639.483 350.875 647.986Z" fill="#1F7A63"/>
</svg>
