<svg width="1080" height="1080" viewBox="0 0 1080 1080" fill="none" xmlns="http://www.w3.org/2000/svg">
<path d="M173.743 598.297C173.743 511.366 173.743 425.102 173.743 338.435C175.668 338.211 177.135 337.892 178.602 337.891C231.538 337.877 284.476 337.744 337.412 337.962C366.264 338.081 393.241 345.378 417.794 360.857C435.012 371.712 448.753 386.059 460.219 403.633C490.988 361.03 532.872 338.386 584.627 334.25C626.419 330.91 665.749 338.734 700.499 363.521C776.055 417.417 778.317 514.43 755.83 569.625C754.222 568.301 752.672 567.203 751.329 565.893C732.383 547.413 713.396 528.973 694.642 510.299C692.717 508.382 691.354 505.067 691.214 502.325C690.284 484.079 686.599 466.586 677.44 450.628C658.885 418.3 629.973 405.255 593.721 406.739C586.451 407.036 579.126 408.384 572.051 410.148C567.681 411.238 565.156 410.121 562.364 407.048C558.971 403.312 555.049 400.058 550.953 396.216C541.073 409.48 531.143 422.782 521.249 436.111C517.936 440.574 514.685 445.083 511.458 449.609C508.528 453.717 506.197 458.293 499.578 457.153C498.052 456.89 495.618 459.596 494.193 461.402C481.519 477.459 468.979 493.622 456.393 509.749C455.588 510.781 454.733 511.774 453.576 513.179C446.649 509.479 439.564 506.278 433.138 502.071C428.306 498.908 425.365 499.789 422.059 503.93C417.799 509.267 413.151 514.294 408.67 519.454C407.748 518.915 406.825 518.375 405.903 517.836C405.903 506.46 407.157 494.904 405.552 483.76C403.931 472.494 400.769 461.041 396.009 450.718C384.341 425.411 363.46 412.185 335.811 411.331C308.266 410.479 280.674 411.144 252.559 411.144C252.559 472.517 252.559 533.726 252.559 595.622C276.504 595.622 300.346 595.622 325.65 595.622C322.165 599.925 319.644 603.178 316.978 606.306C300.103 626.112 283.26 645.946 266.197 665.587C264.555 667.477 261.486 669.156 259.063 669.179C231.707 669.441 204.348 669.363 176.99 669.356C176.14 669.356 175.291 669.138 173.742 668.926C173.742 645.538 173.742 622.251 173.743 598.297Z" fill="#1F7A63"/>
<path d="M739.279 666.648C728.631 661.717 718.49 656.944 706.625 651.361C727.498 635.915 743.008 618.816 753.987 599.184C762.44 600.32 770.044 602.058 777.68 602.211C791.474 602.487 800.655 595.532 803.602 581.955C805.562 572.927 806.257 563.47 806.286 554.2C806.499 484.81 806.406 415.418 806.408 346.027C806.408 343.612 806.408 341.197 806.408 338.253C832.009 338.253 857.238 338.253 883.559 338.253C883.559 340.163 883.559 342.262 883.559 344.361C883.577 416.198 883.643 488.036 883.583 559.874C883.567 578.646 881.712 597.24 874.638 614.83C860.944 648.878 834.493 666.37 799.123 671.474C779.079 674.367 759.193 673.083 739.279 666.648Z" fill="#1F7A63"/>
<path d="M531.35 440.796C536.362 433.812 541.374 426.829 547.1 419.472C548.104 418.738 548.395 418.378 548.686 418.018C549.339 417.178 549.991 416.339 551.341 415.495C552.038 415.49 552.615 415.453 552.615 415.453C555.641 417.43 559.114 418.961 561.614 421.464C570.882 430.738 579.703 440.459 589.018 449.682C590.592 451.24 593.846 450.994 596.201 451.9C598.449 452.764 601.094 453.542 602.609 455.22C614.822 468.751 626.813 482.482 638.864 496.159C641.353 498.983 643.808 501.835 646.101 504.471C646.924 504.534 647.467 504.754 647.766 504.572C660.341 496.931 669.784 499.201 680.231 510.411C701.427 533.157 724.324 554.327 746.709 575.951C750.361 579.479 750.814 582.061 748.295 586.655C722.913 632.945 684.229 660.557 632.432 670.033C630.49 670.388 628.503 670.491 626.087 670.762C623.375 659.469 614.626 654.568 604.814 651.797C586.23 646.551 567.413 642.132 548.727 637.238C544.014 636.003 539.314 634.543 534.843 632.638C532.886 631.804 531.518 629.59 529.883 628.003C531.472 626.602 532.838 624.544 534.689 623.914C542.242 621.344 549.925 619.143 557.596 616.932C567.19 614.166 576.824 611.535 586.432 608.814C587.494 608.513 588.526 608.066 589.529 607.595C594.337 605.337 600.306 603.524 600.186 597.108C600.066 590.672 594.06 588.65 589.084 587.081C577.446 583.413 565.61 580.378 553.867 577.041C551.365 576.33 548.918 575.427 546.445 574.613C546.357 573.987 546.269 573.361 546.181 572.735C549.689 571.505 553.164 570.166 556.714 569.069C563.279 567.04 569.945 565.319 576.437 563.087C578.02 562.543 579.095 560.518 580.404 559.173C578.952 557.967 577.686 556.239 576.017 555.645C568.939 553.127 561.741 550.947 552.939 548.112C565.286 543.905 576.133 540.208 588.375 536.036C583.49 531.599 579.27 527.842 575.136 523.992C569.931 519.143 565.033 513.932 559.561 509.413C554.858 505.529 554.284 501.716 558.098 496.711C563.543 499.67 569.067 502.672 574.591 505.673C574.995 505.333 575.398 504.992 575.802 504.651C569.842 495.078 563.883 485.506 557.722 475.611C554.743 477.061 551.063 478.853 545.461 481.581C549.166 471.82 553.825 464.013 554.781 455.776C555.74 447.515 553.005 438.825 551.889 430.323C551.276 430.014 550.663 429.706 550.051 429.397C546.733 434.362 543.416 439.327 539.241 444.527C536.039 443.439 533.694 442.118 531.35 440.796ZM676.075 542.323C673.086 539.669 669.773 537.287 667.239 534.252C665.873 532.617 664.607 529.159 665.42 527.739C669.487 520.631 666.171 514.759 663.613 508.184C658.799 509.966 654.378 511.396 650.138 513.24C646.838 514.675 644.568 514.521 641.219 512.311C633.218 507.03 624.519 502.806 616.102 498.156C615.533 498.763 614.964 499.371 614.395 499.979C621.489 508.492 628.583 517.005 635.845 525.72C633.398 528.842 630.725 532.252 626.849 537.196C650.816 537.859 661.156 556.877 677.173 569.767C674.869 562.166 672.927 555.761 670.711 548.449C676.362 549.556 680.842 550.433 686.937 551.627C682.794 548.081 679.791 545.511 676.075 542.323Z" fill="#1F7A63"/>
<path d="M339.209 611.682C341.452 611.492 344.133 612.036 345.868 610.998C361.633 601.569 378.573 593.622 389.469 576.545C391.581 580.347 393.117 583.113 394.888 586.301C401.728 580.972 408.255 575.886 416.043 569.818C414.414 577.898 413.122 584.302 411.831 590.706C412.319 591.082 412.807 591.457 413.295 591.833C418.609 587.649 424.429 583.962 429.132 579.178C439.097 569.04 449.905 561.253 464.874 561.065C466.53 561.044 468.678 559.128 469.693 557.52C471.936 553.967 474.124 550.22 475.412 546.252C481.123 528.662 495.775 519.524 510.359 508.472C509.049 514.437 507.982 519.298 506.615 525.524C516.092 517.753 524.551 510.816 533.01 503.88C533.377 504.085 533.745 504.29 534.113 504.495C529.793 515.135 525.473 525.775 521.153 536.415C521.366 536.901 521.579 537.387 521.792 537.873C532.522 531.268 543.253 524.664 555.569 517.084C552.052 528.897 549.012 539.113 545.622 550.502C553.234 552.977 560.832 555.448 568.43 557.918C568.456 558.378 568.481 558.839 568.506 559.299C561.806 561.057 555.075 562.706 548.417 564.612C544.162 565.83 539.837 567.053 535.863 568.946C530.251 571.619 529.944 575.984 535.544 578.574C542.746 581.906 550.49 584.08 558.037 586.646C565.873 589.31 573.752 591.847 581.613 594.44C581.601 595.326 581.589 596.213 581.578 597.099C578.251 598.415 575.014 600.064 571.582 600.988C556.357 605.087 541 608.711 525.855 613.079C519.959 614.78 514.077 617.338 508.933 620.659C500.492 626.109 500.322 634.931 509.013 639.92C516.202 644.048 524.479 646.447 532.479 648.958C546.019 653.208 559.831 656.615 573.286 661.103C577.087 662.371 580.042 666.171 582.46 670.102C531.43 666.846 490.826 644.998 460.514 603.375C458.047 606.757 455.854 609.999 453.426 613.054C425.061 648.744 387.128 665.908 342.499 668.67C321.462 669.971 300.278 668.893 277.883 668.893C296.406 647.024 314.482 625.683 333.045 604.649C332.937 609.299 336.078 610.486 339.209 611.682ZM338.479 615.224C338.495 615.487 338.511 615.749 338.527 616.012C338.604 615.836 338.682 615.661 338.479 615.224Z" fill="#1F7A63"/>
<path d="M339.617 611.505C336.075 610.486 332.934 609.299 333.436 604.379C341.524 593.869 349.663 583.904 357.943 574.058C358.81 573.027 360.835 571.836 361.771 572.187C366.661 574.027 369.18 570.853 372.026 568.031C389.224 550.983 406.473 533.986 423.613 516.881C425.321 515.177 426.414 512.858 427.563 511.162C438.2 516.764 447.187 521.497 456.692 526.502C461.529 520.266 466.143 514.363 470.708 508.421C480.179 496.093 489.554 483.689 499.16 471.466C500.5 469.76 503.017 467.718 504.817 467.87C510.196 468.326 512.814 465.339 515.495 461.572C520.387 454.698 525.53 448.002 530.958 441.014C533.693 442.117 536.038 443.439 538.85 444.777C532.358 454.55 525.505 464.387 518.339 473.989C517.07 475.689 514.403 477.528 512.537 477.379C506.998 476.935 504.309 479.86 501.314 483.848C483.957 506.964 466.332 529.879 448.774 552.844C447.715 554.229 446.454 555.46 445.806 556.184C442.122 554.277 438.653 550.955 435.61 551.308C432.124 551.711 429.014 555.376 426.078 557.392C427.692 547.219 429.294 537.126 430.895 527.034C430.061 526.678 429.227 526.321 428.393 525.965C426.932 527.338 425.437 528.675 424.017 530.089C408.258 545.786 392.56 561.544 376.721 577.16C373.425 580.41 370.668 585.126 364.436 582.908C363.503 582.576 361.292 584.927 360.098 586.385C353.336 594.641 346.704 603.003 339.617 611.505Z" fill="#1F7A63"/>
<path d="M179.685 704.226H202.978C210.558 704.226 216.243 706.259 220.033 710.326C223.822 714.394 225.717 720.356 225.717 728.213V777.295C225.717 785.152 223.822 791.114 220.033 795.182C216.243 799.249 210.558 801.282 202.978 801.282H179.685V704.226ZM202.701 787.417C205.197 787.417 207.092 786.678 208.386 785.199C209.772 783.72 210.466 781.316 210.466 777.989V727.519C210.466 724.192 209.772 721.788 208.386 720.309C207.092 718.83 205.197 718.091 202.701 718.091H194.936V787.417H202.701ZM244.754 704.226H265.413L281.219 801.282H265.968L263.195 782.01V782.287H245.863L243.09 801.282H228.947L244.754 704.226ZM261.392 769.115L254.598 721.141H254.321L247.665 769.115H261.392ZM293.486 759.964L275.045 704.226H291.267L301.666 739.859H301.943L312.342 704.226H327.178L308.737 759.964V801.282H293.486V759.964ZM350.884 802.669C343.397 802.669 337.666 800.543 333.692 796.291C329.717 792.039 327.73 786.03 327.73 778.266V727.242C327.73 719.477 329.717 713.469 333.692 709.217C337.666 704.965 343.397 702.839 350.884 702.839C358.372 702.839 364.103 704.965 368.077 709.217C372.052 713.469 374.039 719.477 374.039 727.242V778.266C374.039 786.03 372.052 792.039 368.077 796.291C364.103 800.543 358.372 802.669 350.884 802.669ZM350.884 788.804C356.153 788.804 358.788 785.615 358.788 779.237V726.271C358.788 719.893 356.153 716.704 350.884 716.704C345.616 716.704 342.981 719.893 342.981 726.271V779.237C342.981 785.615 345.616 788.804 350.884 788.804ZM381.581 704.226H421.929V718.091H396.832V745.128H416.521V758.993H396.832V801.282H381.581V704.226ZM426.469 704.226H466.817V718.091H441.721V745.128H461.41V758.993H441.721V801.282H426.469V704.226ZM494.396 801.837C491.623 801.837 489.266 801.652 487.325 801.282V787.417C488.804 787.787 490.467 787.972 492.316 787.972C495.367 787.972 497.631 787.232 499.11 785.753C500.589 784.182 501.329 781.825 501.329 778.682V704.226H516.58V778.266C516.58 786.215 514.732 792.131 511.034 796.013C507.429 799.896 501.883 801.837 494.396 801.837ZM546.758 802.669C539.271 802.669 533.54 800.543 529.565 796.291C525.59 792.039 523.603 786.03 523.603 778.266V727.242C523.603 719.477 525.59 713.469 529.565 709.217C533.54 704.965 539.271 702.839 546.758 702.839C554.245 702.839 559.976 704.965 563.951 709.217C567.925 713.469 569.913 719.477 569.913 727.242V778.266C569.913 786.03 567.925 792.039 563.951 796.291C559.976 800.543 554.245 802.669 546.758 802.669ZM546.758 788.804C552.027 788.804 554.661 785.615 554.661 779.237V726.271C554.661 719.893 552.027 716.704 546.758 716.704C541.489 716.704 538.855 719.893 538.855 726.271V779.237C538.855 785.615 541.489 788.804 546.758 788.804ZM599.638 802.669C592.244 802.669 586.605 800.589 582.723 796.429C578.841 792.177 576.899 786.123 576.899 778.266V704.226H592.151V779.375C592.151 782.703 592.798 785.106 594.092 786.585C595.479 788.064 597.42 788.804 599.916 788.804C602.411 788.804 604.306 788.064 605.6 786.585C606.987 785.106 607.68 782.703 607.68 779.375V704.226H622.377V778.266C622.377 786.123 620.436 792.177 616.554 796.429C612.672 800.589 607.033 802.669 599.638 802.669ZM630.467 704.226H653.067C660.924 704.226 666.655 706.074 670.26 709.772C673.865 713.377 675.667 718.969 675.667 726.549V732.511C675.667 742.586 672.34 748.964 665.685 751.645V751.922C669.382 753.031 671.97 755.296 673.449 758.716C675.02 762.136 675.806 766.712 675.806 772.443V789.497C675.806 792.27 675.899 794.534 676.083 796.291C676.268 797.955 676.73 799.618 677.47 801.282H661.941C661.386 799.711 661.017 798.232 660.832 796.845C660.647 795.459 660.554 792.963 660.554 789.358V771.611C660.554 767.174 659.815 764.077 658.336 762.321C656.949 760.565 654.5 759.687 650.987 759.687H645.719V801.282H630.467V704.226ZM651.265 745.821C654.315 745.821 656.58 745.036 658.059 743.464C659.63 741.893 660.416 739.258 660.416 735.561V728.074C660.416 724.561 659.769 722.019 658.475 720.448C657.273 718.877 655.332 718.091 652.651 718.091H645.719V745.821H651.265ZM683.615 704.226H702.749L717.585 762.321H717.862V704.226H731.45V801.282H715.782L697.48 730.431H697.203V801.282H683.615V704.226ZM740.013 704.226H781.609V718.091H755.265V743.742H776.201V757.607H755.265V787.417H781.609V801.282H740.013V704.226ZM801.613 759.964L783.173 704.226H799.395L809.794 739.859H810.071L820.47 704.226H835.306L816.865 759.964V801.282H801.613V759.964ZM857.065 802.669C849.67 802.669 844.078 800.589 840.288 796.429C836.498 792.177 834.603 786.123 834.603 778.266V772.72H849.023V779.375C849.023 785.661 851.657 788.804 856.926 788.804C859.514 788.804 861.455 788.064 862.749 786.585C864.136 785.014 864.829 782.518 864.829 779.098C864.829 775.031 863.905 771.472 862.056 768.422C860.207 765.279 856.787 761.535 851.796 757.191C845.51 751.645 841.12 746.653 838.624 742.216C836.128 737.687 834.88 732.603 834.88 726.965C834.88 719.293 836.821 713.377 840.704 709.217C844.586 704.965 850.224 702.839 857.619 702.839C864.922 702.839 870.421 704.965 874.119 709.217C877.909 713.377 879.804 719.385 879.804 727.242V731.263H865.384V726.271C865.384 722.944 864.737 720.54 863.443 719.061C862.149 717.49 860.254 716.704 857.758 716.704C852.674 716.704 850.132 719.801 850.132 725.994C850.132 729.507 851.056 732.788 852.905 735.838C854.846 738.889 858.312 742.586 863.304 746.931C869.682 752.477 874.073 757.514 876.476 762.044C878.879 766.573 880.081 771.888 880.081 777.989C880.081 785.938 878.094 792.039 874.119 796.291C870.237 800.543 864.552 802.669 857.065 802.669Z" fill="#1F7A63"/>
</svg>
