<svg width="1080" height="1080" viewBox="0 0 1080 1080" fill="none" xmlns="http://www.w3.org/2000/svg">
<path d="M185 634.778C185.001 547.847 185.001 461.583 185.001 374.916C186.925 374.692 188.392 374.373 189.859 374.373C242.796 374.358 295.733 374.226 348.669 374.443C377.522 374.562 404.499 381.859 429.052 397.338C446.27 408.193 460.011 422.541 471.476 440.115C502.246 397.511 544.13 374.867 595.885 370.731C637.677 367.391 677.007 375.215 711.757 400.003C787.313 453.898 789.575 550.912 767.088 606.107C765.48 604.783 763.93 603.684 762.587 602.374C743.64 583.894 724.653 565.455 705.9 546.781C703.974 544.864 702.612 541.549 702.472 538.807C701.542 520.56 697.857 503.068 688.698 487.11C670.143 454.781 641.231 441.736 604.979 443.22C597.709 443.518 590.383 444.865 583.308 446.629C578.938 447.719 576.414 446.603 573.622 443.529C570.229 439.794 566.307 436.539 562.21 432.698C552.331 445.962 542.401 459.264 532.506 472.592C529.193 477.055 525.943 481.565 522.715 486.09C519.785 490.198 517.455 494.774 510.836 493.635C509.31 493.372 506.876 496.078 505.451 497.884C492.776 513.941 480.236 530.104 467.651 546.231C466.846 547.262 465.991 548.255 464.834 549.661C457.906 545.96 450.822 542.759 444.396 538.552C439.564 535.389 436.623 536.27 433.317 540.412C429.057 545.748 424.409 550.775 419.928 555.936C419.005 555.396 418.083 554.857 417.161 554.317C417.161 542.942 418.415 531.386 416.81 520.241C415.188 508.976 412.027 497.523 407.267 487.2C395.598 461.893 374.717 448.667 347.069 447.812C319.524 446.961 291.932 447.626 263.816 447.626C263.816 508.998 263.816 570.208 263.816 632.104C287.762 632.104 311.604 632.104 336.908 632.104C333.423 636.407 330.902 639.659 328.236 642.788C311.361 662.593 294.518 682.427 277.454 702.069C275.813 703.958 272.744 705.637 270.321 705.661C242.965 705.922 215.606 705.845 188.248 705.838C187.398 705.838 186.549 705.62 185 705.408C185 682.019 185 658.732 185 634.778Z" fill="#FFBE45"/>
<path d="M750.537 703.13C739.89 698.199 729.748 693.426 717.883 687.842C738.756 672.397 754.266 655.298 765.245 635.666C773.698 636.802 781.302 638.539 788.938 638.692C802.733 638.969 811.913 632.014 814.86 618.437C816.82 609.408 817.516 599.951 817.544 590.682C817.758 521.291 817.664 451.9 817.667 382.509C817.667 380.094 817.666 377.678 817.666 374.735C843.267 374.735 868.496 374.735 894.817 374.735C894.817 376.645 894.817 378.744 894.817 380.842C894.836 452.68 894.902 524.518 894.841 596.355C894.826 615.127 892.97 633.722 885.896 651.312C872.202 685.36 845.751 702.852 810.381 707.956C790.337 710.849 770.451 709.565 750.537 703.13Z" fill="#FFBE45"/>
<path d="M542.605 477.277C547.617 470.293 552.63 463.309 558.355 455.953C559.359 455.219 559.65 454.859 559.942 454.499C560.594 453.659 561.246 452.82 562.596 451.976C563.294 451.971 563.87 451.934 563.87 451.934C566.897 453.911 570.369 455.442 572.87 457.944C582.137 467.218 590.958 476.94 600.273 486.163C601.847 487.721 605.101 487.475 607.457 488.381C609.705 489.245 612.349 490.023 613.864 491.701C626.078 505.231 638.069 518.963 650.12 532.639C652.608 535.463 655.063 538.316 657.356 540.952C658.179 541.015 658.723 541.235 659.022 541.053C671.596 533.412 681.039 535.681 691.486 546.892C712.683 569.638 735.579 590.808 757.965 612.432C761.616 615.959 762.07 618.542 759.55 623.136C734.168 669.425 695.484 697.038 643.687 706.513C641.746 706.869 639.758 706.972 637.342 707.243C634.631 695.95 625.881 691.048 616.069 688.278C597.485 683.031 578.668 678.613 559.983 673.718C555.269 672.484 550.57 671.024 546.098 669.119C544.142 668.285 542.773 666.071 541.138 664.483C542.727 663.082 544.093 661.025 545.945 660.395C553.498 657.824 561.18 655.624 568.851 653.413C578.446 650.647 588.079 648.015 597.687 645.295C598.75 644.994 599.781 644.546 600.784 644.076C605.592 641.818 611.562 640.005 611.442 633.589C611.321 627.152 605.316 625.13 600.339 623.562C588.702 619.894 576.865 616.858 565.122 613.522C562.62 612.811 560.173 611.908 557.7 611.093C557.612 610.468 557.524 609.842 557.436 609.216C560.945 607.986 564.42 606.647 567.969 605.55C574.534 603.521 581.2 601.799 587.692 599.568C589.276 599.024 590.35 596.998 591.659 595.654C590.207 594.448 588.942 592.719 587.272 592.126C580.194 589.608 572.997 587.428 564.194 584.593C576.541 580.385 587.388 576.689 599.63 572.517C594.745 568.079 590.525 564.323 586.392 560.472C581.186 555.624 576.289 550.412 570.816 545.893C566.113 542.01 565.539 538.197 569.353 533.191C574.799 536.151 580.323 539.152 585.846 542.154C586.25 541.813 586.654 541.472 587.058 541.131C581.098 531.559 575.138 521.987 568.977 512.091C565.998 513.542 562.318 515.334 556.716 518.061C560.422 508.301 565.081 500.493 566.037 492.256C566.995 483.995 564.26 475.306 563.144 466.804C562.531 466.495 561.919 466.187 561.306 465.878C557.989 470.843 554.672 475.808 550.497 481.008C547.294 479.92 544.95 478.598 542.605 477.277ZM687.33 578.804C684.341 576.15 681.028 573.767 678.494 570.733C677.129 569.098 675.862 565.64 676.675 564.219C680.742 557.111 677.426 551.24 674.869 544.665C670.055 546.447 665.634 547.877 661.393 549.721C658.093 551.156 655.824 551.002 652.474 548.791C644.473 543.511 635.775 539.287 627.358 534.637C626.789 535.244 626.22 535.852 625.65 536.46C632.744 544.973 639.838 553.486 647.101 562.201C644.653 565.322 641.98 568.732 638.104 573.677C662.072 574.339 672.411 593.358 688.428 606.248C686.124 598.647 684.182 592.242 681.966 584.93C687.617 586.036 692.098 586.914 698.193 588.107C694.049 584.561 691.047 581.992 687.33 578.804Z" fill="#FFBE45"/>
<path d="M350.467 648.163C352.709 647.974 355.39 648.517 357.126 647.48C372.891 638.05 389.831 630.103 400.727 613.026C402.839 616.829 404.375 619.594 406.146 622.782C412.985 617.453 419.513 612.367 427.301 606.3C425.672 614.38 424.38 620.784 423.089 627.187C423.577 627.563 424.065 627.939 424.552 628.314C429.866 624.13 435.687 620.444 440.39 615.659C450.355 605.522 461.162 597.735 476.131 597.546C477.788 597.525 479.936 595.609 480.951 594.001C483.194 590.448 485.382 586.701 486.67 582.734C492.381 565.143 507.033 556.005 521.617 544.954C520.307 550.918 519.24 555.779 517.873 562.006C527.35 554.234 535.809 547.298 544.268 540.361C544.635 540.566 545.003 540.772 545.371 540.977C541.051 551.617 536.731 562.257 532.411 572.897C532.624 573.383 532.837 573.868 533.049 574.354C543.78 567.75 554.51 561.145 566.826 553.565C563.31 565.379 560.269 575.594 556.879 586.983C564.492 589.458 572.09 591.929 579.688 594.399C579.714 594.86 579.739 595.32 579.764 595.78C573.064 597.538 566.333 599.188 559.675 601.094C555.42 602.312 551.095 603.534 547.121 605.427C541.509 608.1 541.202 612.465 546.802 615.055C554.004 618.387 561.748 620.561 569.295 623.127C577.131 625.791 585.01 628.329 592.87 630.921C592.859 631.808 592.847 632.694 592.835 633.581C589.509 634.896 586.272 636.546 582.84 637.47C567.615 641.569 552.257 645.192 537.113 649.561C531.217 651.261 525.335 653.819 520.191 657.14C511.75 662.59 511.58 671.412 520.271 676.402C527.459 680.529 535.736 682.928 543.737 685.44C557.277 689.69 571.089 693.096 584.544 697.585C588.345 698.852 591.3 702.652 593.718 706.584C542.688 703.327 502.084 681.48 471.772 639.857C469.305 643.238 467.112 646.48 464.684 649.536C436.319 685.226 398.385 702.39 353.757 705.151C332.72 706.453 311.536 705.374 289.141 705.374C307.664 683.506 325.74 662.164 344.303 641.131C344.195 645.78 347.336 646.968 350.467 648.163ZM349.736 651.705C349.752 651.968 349.768 652.231 349.784 652.494C349.862 652.318 349.94 652.142 349.736 651.705Z" fill="#FFBE45"/>
<path d="M350.871 647.987C347.329 646.968 344.188 645.78 344.69 640.86C352.778 630.351 360.917 620.386 369.197 610.54C370.064 609.509 372.089 608.317 373.025 608.669C377.915 610.509 380.434 607.334 383.28 604.513C400.477 587.464 417.727 570.468 434.867 553.362C436.574 551.659 437.668 549.34 438.817 547.643C449.454 553.245 458.441 557.978 467.946 562.984C472.783 556.748 477.397 550.845 481.962 544.903C491.433 532.574 500.808 520.171 510.413 507.947C511.754 506.241 514.271 504.199 516.071 504.352C521.45 504.808 524.068 501.821 526.749 498.053C531.641 491.179 536.784 484.484 542.212 477.495C544.947 478.599 547.291 479.92 550.104 481.258C543.612 491.031 536.759 500.868 529.592 510.471C528.324 512.171 525.657 514.01 523.79 513.86C518.252 513.416 515.563 516.341 512.568 520.329C495.211 543.446 477.586 566.361 460.028 589.326C458.969 590.711 457.708 591.942 457.06 592.665C453.376 590.758 449.907 587.437 446.864 587.789C443.377 588.193 440.268 591.857 437.332 593.874C438.946 583.7 440.547 573.608 442.149 563.515C441.315 563.159 440.481 562.803 439.647 562.447C438.186 563.819 436.691 565.156 435.271 566.57C419.512 582.267 403.814 598.026 387.975 613.642C384.679 616.892 381.922 621.607 375.69 619.39C374.756 619.058 372.546 621.408 371.352 622.866C364.59 631.122 357.958 639.484 350.871 647.987Z" fill="#FFBE45"/>
</svg>
